<svg viewBox="0 0 50.65588 36.934177" xmlns="http://www.w3.org/2000/svg"><path d="m30.5593 36.9342h-6.3748l-12.3527-14.6844h-6.92051v14.6844h-4.91133v-36.934198h10.34354c2.2324 0 4.0928.148828 5.5811.446484 1.4882.28112 2.8277.793754 4.0183 1.537894 1.3395.84336 2.3813 1.90996 3.1254 3.1998.7607 1.27331 1.141 2.89388 1.141 4.86172 0 2.6624-.6697 4.8948-2.0092 6.6973-1.3394 1.7859-3.1832 3.1336-5.5314 4.0431zm-10.0146-26.541-15.63341-6.1764v13.9402z" fill="#af1866"/><path d="m30.5593.0315226v36.9025774h3.9827v-13.735l1.7767.0945c2.6441.0946 4.8369-.3142 6.5732-.9425 1.7363-.645 3.2412-1.6041 4.5144-2.8774 1.0253-1.0252 1.819-2.2324 2.3813-3.6215.5788-1.4056.8682-2.9269.8682-4.564 0-2.14975-.3887-3.92742-1.1659-5.33302-.7606-1.40559-1.8438-2.57968-3.2494-3.52226-1.1906-.79375-2.5548-1.37252-4.0927-1.736323-1.5379-.380338-3.4151-.535367-5.6307-.570507zm3.9827 2.7755374c7.1562.01862 12.943 3.97537 12.943 8.84984 0 4.8745-5.7868 8.8312-12.943 8.8498v-2.7228c3.2136-.0001 6.183-1.1679 7.7898-3.0636 1.6068-1.8956 1.6068-4.2312 0-6.12683-1.6068-1.89566-4.5762-3.06343-7.7898-3.06343zm0 4.76508c2.1425 0 4.1222.77855 5.1935 2.04238 1.0712 1.26378 1.0712 2.82088 0 4.08478-1.0713 1.2638-3.051 2.0424-5.1935 2.0424z" fill="#1a69b5"/></svg>